<mxfile host="Electron" modified="2024-06-04T16:02:04.307Z" agent="Mozilla/5.0 (Windows NT 10.0; Win64; x64) AppleWebKit/537.36 (KHTML, like Gecko) draw.io/24.4.8 Chrome/124.0.6367.207 Electron/30.0.6 Safari/537.36" etag="CUVhezFnqAebF-Ztpocx" version="24.4.8" type="device">
  <diagram name="第 1 页" id="BZMuGqoI7VH7rGd2U8c3">
    <mxGraphModel dx="1296" dy="953" grid="1" gridSize="10" guides="1" tooltips="1" connect="1" arrows="1" fold="1" page="1" pageScale="1" pageWidth="3300" pageHeight="4681" math="0" shadow="0">
      <root>
        <mxCell id="0" />
        <mxCell id="1" parent="0" />
        <mxCell id="l2PJl8eyPoyv5ziFQWxU-7" value="" style="rounded=0;whiteSpace=wrap;html=1;" parent="1" vertex="1">
          <mxGeometry x="130" y="210" width="140" height="400" as="geometry" />
        </mxCell>
        <mxCell id="l2PJl8eyPoyv5ziFQWxU-8" value="" style="rounded=0;whiteSpace=wrap;html=1;" parent="1" vertex="1">
          <mxGeometry x="130" y="570" width="140" height="40" as="geometry" />
        </mxCell>
        <mxCell id="l2PJl8eyPoyv5ziFQWxU-9" value="" style="rounded=0;whiteSpace=wrap;html=1;" parent="1" vertex="1">
          <mxGeometry x="130" y="490" width="140" height="40" as="geometry" />
        </mxCell>
        <mxCell id="l2PJl8eyPoyv5ziFQWxU-10" value="" style="rounded=0;whiteSpace=wrap;html=1;" parent="1" vertex="1">
          <mxGeometry x="130" y="410" width="140" height="40" as="geometry" />
        </mxCell>
        <mxCell id="l2PJl8eyPoyv5ziFQWxU-12" value="&lt;font style=&quot;font-size: 24px;&quot;&gt;栈底&lt;/font&gt;" style="text;html=1;align=center;verticalAlign=middle;resizable=0;points=[];autosize=1;strokeColor=none;fillColor=none;" parent="1" vertex="1">
          <mxGeometry x="280" y="570" width="70" height="40" as="geometry" />
        </mxCell>
        <mxCell id="l2PJl8eyPoyv5ziFQWxU-13" value="&lt;font style=&quot;font-size: 24px;&quot;&gt;栈顶&lt;/font&gt;" style="text;html=1;align=center;verticalAlign=middle;resizable=0;points=[];autosize=1;strokeColor=none;fillColor=none;" parent="1" vertex="1">
          <mxGeometry x="280" y="410" width="70" height="40" as="geometry" />
        </mxCell>
        <mxCell id="l2PJl8eyPoyv5ziFQWxU-14" value="" style="rounded=0;whiteSpace=wrap;html=1;" parent="1" vertex="1">
          <mxGeometry x="410" y="210" width="140" height="400" as="geometry" />
        </mxCell>
        <mxCell id="l2PJl8eyPoyv5ziFQWxU-15" value="" style="rounded=0;whiteSpace=wrap;html=1;" parent="1" vertex="1">
          <mxGeometry x="410" y="570" width="140" height="40" as="geometry" />
        </mxCell>
        <mxCell id="l2PJl8eyPoyv5ziFQWxU-16" value="" style="rounded=0;whiteSpace=wrap;html=1;" parent="1" vertex="1">
          <mxGeometry x="410" y="490" width="140" height="40" as="geometry" />
        </mxCell>
        <mxCell id="l2PJl8eyPoyv5ziFQWxU-17" value="" style="rounded=0;whiteSpace=wrap;html=1;" parent="1" vertex="1">
          <mxGeometry x="410" y="410" width="140" height="40" as="geometry" />
        </mxCell>
        <mxCell id="l2PJl8eyPoyv5ziFQWxU-19" value="&lt;font style=&quot;font-size: 24px;&quot;&gt;栈底&lt;/font&gt;" style="text;html=1;align=center;verticalAlign=middle;resizable=0;points=[];autosize=1;strokeColor=none;fillColor=none;" parent="1" vertex="1">
          <mxGeometry x="560" y="570" width="70" height="40" as="geometry" />
        </mxCell>
        <mxCell id="l2PJl8eyPoyv5ziFQWxU-20" value="&lt;font style=&quot;font-size: 24px;&quot;&gt;栈顶&lt;/font&gt;" style="text;html=1;align=center;verticalAlign=middle;resizable=0;points=[];autosize=1;strokeColor=none;fillColor=none;" parent="1" vertex="1">
          <mxGeometry x="560" y="370" width="70" height="40" as="geometry" />
        </mxCell>
        <mxCell id="l2PJl8eyPoyv5ziFQWxU-21" value="" style="rounded=0;whiteSpace=wrap;html=1;" parent="1" vertex="1">
          <mxGeometry x="1210" y="193.5" width="140" height="400" as="geometry" />
        </mxCell>
        <mxCell id="l2PJl8eyPoyv5ziFQWxU-22" value="" style="rounded=0;whiteSpace=wrap;html=1;" parent="1" vertex="1">
          <mxGeometry x="1210" y="553.5" width="140" height="40" as="geometry" />
        </mxCell>
        <mxCell id="l2PJl8eyPoyv5ziFQWxU-23" value="" style="rounded=0;whiteSpace=wrap;html=1;" parent="1" vertex="1">
          <mxGeometry x="1210" y="473.5" width="140" height="40" as="geometry" />
        </mxCell>
        <mxCell id="l2PJl8eyPoyv5ziFQWxU-24" value="" style="rounded=0;whiteSpace=wrap;html=1;" parent="1" vertex="1">
          <mxGeometry x="1210" y="393.5" width="140" height="40" as="geometry" />
        </mxCell>
        <mxCell id="l2PJl8eyPoyv5ziFQWxU-26" value="&lt;font style=&quot;font-size: 24px;&quot;&gt;栈底&lt;/font&gt;" style="text;html=1;align=center;verticalAlign=middle;resizable=0;points=[];autosize=1;strokeColor=none;fillColor=none;" parent="1" vertex="1">
          <mxGeometry x="1375" y="566.5" width="70" height="40" as="geometry" />
        </mxCell>
        <mxCell id="l2PJl8eyPoyv5ziFQWxU-27" value="&lt;font style=&quot;font-size: 24px;&quot;&gt;栈顶&lt;/font&gt;" style="text;html=1;align=center;verticalAlign=middle;resizable=0;points=[];autosize=1;strokeColor=none;fillColor=none;" parent="1" vertex="1">
          <mxGeometry x="1360" y="320" width="70" height="40" as="geometry" />
        </mxCell>
        <mxCell id="l2PJl8eyPoyv5ziFQWxU-28" value="" style="rounded=0;whiteSpace=wrap;html=1;" parent="1" vertex="1">
          <mxGeometry x="410" y="370" width="140" height="40" as="geometry" />
        </mxCell>
        <mxCell id="l2PJl8eyPoyv5ziFQWxU-31" value="" style="html=1;shadow=0;dashed=0;align=center;verticalAlign=middle;shape=mxgraph.arrows2.jumpInArrow;dy=15;dx=38;arrowHead=55;rotation=75;" parent="1" vertex="1">
          <mxGeometry x="380" y="170" width="100" height="100" as="geometry" />
        </mxCell>
        <mxCell id="l2PJl8eyPoyv5ziFQWxU-32" value="&lt;font style=&quot;font-size: 24px;&quot;&gt;入栈&lt;/font&gt;" style="text;html=1;align=center;verticalAlign=middle;resizable=0;points=[];autosize=1;strokeColor=none;fillColor=none;" parent="1" vertex="1">
          <mxGeometry x="470" y="170" width="70" height="40" as="geometry" />
        </mxCell>
        <mxCell id="l2PJl8eyPoyv5ziFQWxU-34" value="&lt;font style=&quot;font-size: 24px;&quot;&gt;出栈&lt;/font&gt;" style="text;html=1;align=center;verticalAlign=middle;resizable=0;points=[];autosize=1;strokeColor=none;fillColor=none;" parent="1" vertex="1">
          <mxGeometry x="1280" y="193.5" width="70" height="40" as="geometry" />
        </mxCell>
        <mxCell id="l2PJl8eyPoyv5ziFQWxU-35" value="" style="rounded=0;whiteSpace=wrap;html=1;" parent="1" vertex="1">
          <mxGeometry x="680" y="200" width="140" height="400" as="geometry" />
        </mxCell>
        <mxCell id="l2PJl8eyPoyv5ziFQWxU-36" value="" style="rounded=0;whiteSpace=wrap;html=1;" parent="1" vertex="1">
          <mxGeometry x="680" y="560" width="140" height="40" as="geometry" />
        </mxCell>
        <mxCell id="l2PJl8eyPoyv5ziFQWxU-37" value="" style="rounded=0;whiteSpace=wrap;html=1;" parent="1" vertex="1">
          <mxGeometry x="680" y="480" width="140" height="40" as="geometry" />
        </mxCell>
        <mxCell id="l2PJl8eyPoyv5ziFQWxU-38" value="" style="rounded=0;whiteSpace=wrap;html=1;" parent="1" vertex="1">
          <mxGeometry x="680" y="400" width="140" height="40" as="geometry" />
        </mxCell>
        <mxCell id="l2PJl8eyPoyv5ziFQWxU-39" value="&lt;font style=&quot;font-size: 24px;&quot;&gt;栈底&lt;/font&gt;" style="text;html=1;align=center;verticalAlign=middle;resizable=0;points=[];autosize=1;strokeColor=none;fillColor=none;" parent="1" vertex="1">
          <mxGeometry x="830" y="560" width="70" height="40" as="geometry" />
        </mxCell>
        <mxCell id="l2PJl8eyPoyv5ziFQWxU-40" value="&lt;font style=&quot;font-size: 24px;&quot;&gt;栈顶&lt;/font&gt;" style="text;html=1;align=center;verticalAlign=middle;resizable=0;points=[];autosize=1;strokeColor=none;fillColor=none;" parent="1" vertex="1">
          <mxGeometry x="830" y="320" width="70" height="40" as="geometry" />
        </mxCell>
        <mxCell id="l2PJl8eyPoyv5ziFQWxU-41" value="" style="rounded=0;whiteSpace=wrap;html=1;" parent="1" vertex="1">
          <mxGeometry x="680" y="360" width="140" height="40" as="geometry" />
        </mxCell>
        <mxCell id="l2PJl8eyPoyv5ziFQWxU-42" value="" style="html=1;shadow=0;dashed=0;align=center;verticalAlign=middle;shape=mxgraph.arrows2.jumpInArrow;dy=15;dx=38;arrowHead=55;rotation=75;" parent="1" vertex="1">
          <mxGeometry x="650" y="160" width="100" height="100" as="geometry" />
        </mxCell>
        <mxCell id="l2PJl8eyPoyv5ziFQWxU-43" value="&lt;font style=&quot;font-size: 24px;&quot;&gt;入栈&lt;/font&gt;" style="text;html=1;align=center;verticalAlign=middle;resizable=0;points=[];autosize=1;strokeColor=none;fillColor=none;" parent="1" vertex="1">
          <mxGeometry x="740" y="160" width="70" height="40" as="geometry" />
        </mxCell>
        <mxCell id="l2PJl8eyPoyv5ziFQWxU-44" value="" style="rounded=0;whiteSpace=wrap;html=1;" parent="1" vertex="1">
          <mxGeometry x="940" y="200" width="140" height="400" as="geometry" />
        </mxCell>
        <mxCell id="l2PJl8eyPoyv5ziFQWxU-45" value="" style="rounded=0;whiteSpace=wrap;html=1;" parent="1" vertex="1">
          <mxGeometry x="940" y="560" width="140" height="40" as="geometry" />
        </mxCell>
        <mxCell id="l2PJl8eyPoyv5ziFQWxU-46" value="" style="rounded=0;whiteSpace=wrap;html=1;" parent="1" vertex="1">
          <mxGeometry x="940" y="480" width="140" height="40" as="geometry" />
        </mxCell>
        <mxCell id="l2PJl8eyPoyv5ziFQWxU-47" value="" style="rounded=0;whiteSpace=wrap;html=1;" parent="1" vertex="1">
          <mxGeometry x="940" y="400" width="140" height="40" as="geometry" />
        </mxCell>
        <mxCell id="l2PJl8eyPoyv5ziFQWxU-48" value="&lt;font style=&quot;font-size: 24px;&quot;&gt;栈底&lt;/font&gt;" style="text;html=1;align=center;verticalAlign=middle;resizable=0;points=[];autosize=1;strokeColor=none;fillColor=none;" parent="1" vertex="1">
          <mxGeometry x="1090" y="560" width="70" height="40" as="geometry" />
        </mxCell>
        <mxCell id="l2PJl8eyPoyv5ziFQWxU-49" value="&lt;font style=&quot;font-size: 24px;&quot;&gt;栈顶&lt;/font&gt;" style="text;html=1;align=center;verticalAlign=middle;resizable=0;points=[];autosize=1;strokeColor=none;fillColor=none;" parent="1" vertex="1">
          <mxGeometry x="1090" y="283.5" width="70" height="40" as="geometry" />
        </mxCell>
        <mxCell id="l2PJl8eyPoyv5ziFQWxU-50" value="" style="rounded=0;whiteSpace=wrap;html=1;" parent="1" vertex="1">
          <mxGeometry x="940" y="360" width="140" height="40" as="geometry" />
        </mxCell>
        <mxCell id="l2PJl8eyPoyv5ziFQWxU-51" value="" style="html=1;shadow=0;dashed=0;align=center;verticalAlign=middle;shape=mxgraph.arrows2.jumpInArrow;dy=15;dx=38;arrowHead=55;rotation=75;" parent="1" vertex="1">
          <mxGeometry x="910" y="160" width="100" height="100" as="geometry" />
        </mxCell>
        <mxCell id="l2PJl8eyPoyv5ziFQWxU-52" value="&lt;font style=&quot;font-size: 24px;&quot;&gt;入栈&lt;/font&gt;" style="text;html=1;align=center;verticalAlign=middle;resizable=0;points=[];autosize=1;strokeColor=none;fillColor=none;" parent="1" vertex="1">
          <mxGeometry x="1000" y="160" width="70" height="40" as="geometry" />
        </mxCell>
        <mxCell id="l2PJl8eyPoyv5ziFQWxU-53" value="" style="rounded=0;whiteSpace=wrap;html=1;" parent="1" vertex="1">
          <mxGeometry x="680" y="320" width="140" height="40" as="geometry" />
        </mxCell>
        <mxCell id="l2PJl8eyPoyv5ziFQWxU-54" value="" style="rounded=0;whiteSpace=wrap;html=1;" parent="1" vertex="1">
          <mxGeometry x="940" y="320" width="140" height="40" as="geometry" />
        </mxCell>
        <mxCell id="l2PJl8eyPoyv5ziFQWxU-55" value="" style="rounded=0;whiteSpace=wrap;html=1;" parent="1" vertex="1">
          <mxGeometry x="940" y="280" width="140" height="40" as="geometry" />
        </mxCell>
        <mxCell id="l2PJl8eyPoyv5ziFQWxU-56" value="" style="rounded=0;whiteSpace=wrap;html=1;" parent="1" vertex="1">
          <mxGeometry x="1480" y="190" width="140" height="400" as="geometry" />
        </mxCell>
        <mxCell id="l2PJl8eyPoyv5ziFQWxU-57" value="" style="rounded=0;whiteSpace=wrap;html=1;" parent="1" vertex="1">
          <mxGeometry x="1480" y="550" width="140" height="40" as="geometry" />
        </mxCell>
        <mxCell id="l2PJl8eyPoyv5ziFQWxU-58" value="" style="rounded=0;whiteSpace=wrap;html=1;" parent="1" vertex="1">
          <mxGeometry x="1480" y="470" width="140" height="40" as="geometry" />
        </mxCell>
        <mxCell id="l2PJl8eyPoyv5ziFQWxU-59" value="" style="rounded=0;whiteSpace=wrap;html=1;" parent="1" vertex="1">
          <mxGeometry x="1480" y="390" width="140" height="40" as="geometry" />
        </mxCell>
        <mxCell id="l2PJl8eyPoyv5ziFQWxU-60" value="&lt;font style=&quot;font-size: 24px;&quot;&gt;栈底&lt;/font&gt;" style="text;html=1;align=center;verticalAlign=middle;resizable=0;points=[];autosize=1;strokeColor=none;fillColor=none;" parent="1" vertex="1">
          <mxGeometry x="1640" y="560" width="70" height="40" as="geometry" />
        </mxCell>
        <mxCell id="l2PJl8eyPoyv5ziFQWxU-61" value="&lt;font style=&quot;font-size: 24px;&quot;&gt;栈顶&lt;/font&gt;" style="text;html=1;align=center;verticalAlign=middle;resizable=0;points=[];autosize=1;strokeColor=none;fillColor=none;" parent="1" vertex="1">
          <mxGeometry x="1640" y="350" width="70" height="40" as="geometry" />
        </mxCell>
        <mxCell id="l2PJl8eyPoyv5ziFQWxU-62" value="&lt;font style=&quot;font-size: 24px;&quot;&gt;出栈&lt;/font&gt;" style="text;html=1;align=center;verticalAlign=middle;resizable=0;points=[];autosize=1;strokeColor=none;fillColor=none;" parent="1" vertex="1">
          <mxGeometry x="1550" y="190" width="70" height="40" as="geometry" />
        </mxCell>
        <mxCell id="l2PJl8eyPoyv5ziFQWxU-63" value="" style="rounded=0;whiteSpace=wrap;html=1;" parent="1" vertex="1">
          <mxGeometry x="1715" y="180.5" width="140" height="400" as="geometry" />
        </mxCell>
        <mxCell id="l2PJl8eyPoyv5ziFQWxU-64" value="" style="rounded=0;whiteSpace=wrap;html=1;" parent="1" vertex="1">
          <mxGeometry x="1715" y="540.5" width="140" height="40" as="geometry" />
        </mxCell>
        <mxCell id="l2PJl8eyPoyv5ziFQWxU-65" value="" style="rounded=0;whiteSpace=wrap;html=1;" parent="1" vertex="1">
          <mxGeometry x="1715" y="460.5" width="140" height="40" as="geometry" />
        </mxCell>
        <mxCell id="l2PJl8eyPoyv5ziFQWxU-67" value="&lt;font style=&quot;font-size: 24px;&quot;&gt;栈底&lt;/font&gt;" style="text;html=1;align=center;verticalAlign=middle;resizable=0;points=[];autosize=1;strokeColor=none;fillColor=none;" parent="1" vertex="1">
          <mxGeometry x="1880" y="560" width="70" height="40" as="geometry" />
        </mxCell>
        <mxCell id="l2PJl8eyPoyv5ziFQWxU-68" value="&lt;font style=&quot;font-size: 24px;&quot;&gt;栈顶&lt;/font&gt;" style="text;html=1;align=center;verticalAlign=middle;resizable=0;points=[];autosize=1;strokeColor=none;fillColor=none;" parent="1" vertex="1">
          <mxGeometry x="1880" y="420.5" width="70" height="40" as="geometry" />
        </mxCell>
        <mxCell id="l2PJl8eyPoyv5ziFQWxU-69" value="&lt;font style=&quot;font-size: 24px;&quot;&gt;出栈&lt;/font&gt;" style="text;html=1;align=center;verticalAlign=middle;resizable=0;points=[];autosize=1;strokeColor=none;fillColor=none;" parent="1" vertex="1">
          <mxGeometry x="1785" y="180.5" width="70" height="40" as="geometry" />
        </mxCell>
        <mxCell id="l2PJl8eyPoyv5ziFQWxU-70" value="" style="html=1;shadow=0;dashed=0;align=center;verticalAlign=middle;shape=mxgraph.arrows2.jumpInArrow;dy=15;dx=38;arrowHead=55;rotation=-15;" parent="1" vertex="1">
          <mxGeometry x="1230" y="150.5" width="100" height="100" as="geometry" />
        </mxCell>
        <mxCell id="l2PJl8eyPoyv5ziFQWxU-71" value="" style="rounded=0;whiteSpace=wrap;html=1;" parent="1" vertex="1">
          <mxGeometry x="1210" y="353.5" width="140" height="40" as="geometry" />
        </mxCell>
        <mxCell id="l2PJl8eyPoyv5ziFQWxU-72" value="" style="rounded=0;whiteSpace=wrap;html=1;" parent="1" vertex="1">
          <mxGeometry x="1210" y="313.5" width="140" height="40" as="geometry" />
        </mxCell>
        <mxCell id="l2PJl8eyPoyv5ziFQWxU-73" value="" style="rounded=0;whiteSpace=wrap;html=1;" parent="1" vertex="1">
          <mxGeometry x="1480" y="346.5" width="140" height="40" as="geometry" />
        </mxCell>
        <mxCell id="l2PJl8eyPoyv5ziFQWxU-74" value="" style="rounded=0;whiteSpace=wrap;html=1;" parent="1" vertex="1">
          <mxGeometry x="1715" y="420.5" width="140" height="40" as="geometry" />
        </mxCell>
        <mxCell id="l2PJl8eyPoyv5ziFQWxU-75" value="&lt;font style=&quot;font-size: 24px;&quot;&gt;Push&lt;/font&gt;" style="text;html=1;align=center;verticalAlign=middle;resizable=0;points=[];autosize=1;strokeColor=none;fillColor=none;" parent="1" vertex="1">
          <mxGeometry x="700" y="633" width="80" height="40" as="geometry" />
        </mxCell>
        <mxCell id="l2PJl8eyPoyv5ziFQWxU-76" value="&lt;font style=&quot;font-size: 24px;&quot;&gt;Pop&lt;/font&gt;" style="text;html=1;align=center;verticalAlign=middle;resizable=0;points=[];autosize=1;strokeColor=none;fillColor=none;" parent="1" vertex="1">
          <mxGeometry x="1245" y="633" width="70" height="40" as="geometry" />
        </mxCell>
        <mxCell id="l2PJl8eyPoyv5ziFQWxU-77" value="&lt;font style=&quot;font-size: 24px;&quot;&gt;Push&lt;/font&gt;" style="text;html=1;align=center;verticalAlign=middle;resizable=0;points=[];autosize=1;strokeColor=none;fillColor=none;" parent="1" vertex="1">
          <mxGeometry x="970" y="633" width="80" height="40" as="geometry" />
        </mxCell>
        <mxCell id="l2PJl8eyPoyv5ziFQWxU-78" value="&lt;font style=&quot;font-size: 24px;&quot;&gt;Push&lt;/font&gt;" style="text;html=1;align=center;verticalAlign=middle;resizable=0;points=[];autosize=1;strokeColor=none;fillColor=none;" parent="1" vertex="1">
          <mxGeometry x="450" y="633" width="80" height="40" as="geometry" />
        </mxCell>
        <mxCell id="l2PJl8eyPoyv5ziFQWxU-79" value="&lt;font style=&quot;font-size: 24px;&quot;&gt;Pop&lt;/font&gt;" style="text;html=1;align=center;verticalAlign=middle;resizable=0;points=[];autosize=1;strokeColor=none;fillColor=none;" parent="1" vertex="1">
          <mxGeometry x="1515" y="633" width="70" height="40" as="geometry" />
        </mxCell>
        <mxCell id="l2PJl8eyPoyv5ziFQWxU-80" value="&lt;font style=&quot;font-size: 24px;&quot;&gt;Pop&lt;/font&gt;" style="text;html=1;align=center;verticalAlign=middle;resizable=0;points=[];autosize=1;strokeColor=none;fillColor=none;" parent="1" vertex="1">
          <mxGeometry x="1750" y="630" width="70" height="40" as="geometry" />
        </mxCell>
        <mxCell id="l2PJl8eyPoyv5ziFQWxU-81" value="" style="html=1;shadow=0;dashed=0;align=center;verticalAlign=middle;shape=mxgraph.arrows2.jumpInArrow;dy=15;dx=38;arrowHead=55;rotation=-15;" parent="1" vertex="1">
          <mxGeometry x="1500" y="150.5" width="100" height="100" as="geometry" />
        </mxCell>
        <mxCell id="l2PJl8eyPoyv5ziFQWxU-83" value="" style="html=1;shadow=0;dashed=0;align=center;verticalAlign=middle;shape=mxgraph.arrows2.jumpInArrow;dy=15;dx=38;arrowHead=55;rotation=-15;" parent="1" vertex="1">
          <mxGeometry x="1735" y="140" width="100" height="100" as="geometry" />
        </mxCell>
        <mxCell id="l2PJl8eyPoyv5ziFQWxU-84" value="" style="rounded=0;whiteSpace=wrap;html=1;" parent="1" vertex="1">
          <mxGeometry x="310" y="920" width="670" height="140" as="geometry" />
        </mxCell>
        <mxCell id="l2PJl8eyPoyv5ziFQWxU-85" value="" style="rounded=0;whiteSpace=wrap;html=1;" parent="1" vertex="1">
          <mxGeometry x="310" y="920" width="40" height="140" as="geometry" />
        </mxCell>
        <mxCell id="l2PJl8eyPoyv5ziFQWxU-86" value="" style="rounded=0;whiteSpace=wrap;html=1;" parent="1" vertex="1">
          <mxGeometry x="390" y="920" width="40" height="140" as="geometry" />
        </mxCell>
        <mxCell id="l2PJl8eyPoyv5ziFQWxU-87" value="" style="rounded=0;whiteSpace=wrap;html=1;" parent="1" vertex="1">
          <mxGeometry x="470" y="920" width="40" height="140" as="geometry" />
        </mxCell>
        <mxCell id="l2PJl8eyPoyv5ziFQWxU-88" value="" style="rounded=0;whiteSpace=wrap;html=1;" parent="1" vertex="1">
          <mxGeometry x="550" y="920" width="40" height="140" as="geometry" />
        </mxCell>
        <mxCell id="l2PJl8eyPoyv5ziFQWxU-90" value="" style="shape=singleArrow;direction=west;whiteSpace=wrap;html=1;" parent="1" vertex="1">
          <mxGeometry x="990" y="960" width="100" height="60" as="geometry" />
        </mxCell>
        <mxCell id="l2PJl8eyPoyv5ziFQWxU-91" value="" style="shape=singleArrow;direction=west;whiteSpace=wrap;html=1;" parent="1" vertex="1">
          <mxGeometry x="210" y="960" width="100" height="60" as="geometry" />
        </mxCell>
        <mxCell id="l2PJl8eyPoyv5ziFQWxU-92" value="&lt;span style=&quot;font-size: 24px;&quot;&gt;出队&lt;/span&gt;" style="text;html=1;align=center;verticalAlign=middle;resizable=0;points=[];autosize=1;strokeColor=none;fillColor=none;" parent="1" vertex="1">
          <mxGeometry x="240" y="930" width="70" height="40" as="geometry" />
        </mxCell>
        <mxCell id="l2PJl8eyPoyv5ziFQWxU-93" value="&lt;span style=&quot;font-size: 24px;&quot;&gt;入队&lt;/span&gt;" style="text;html=1;align=center;verticalAlign=middle;resizable=0;points=[];autosize=1;strokeColor=none;fillColor=none;" parent="1" vertex="1">
          <mxGeometry x="1020" y="930" width="70" height="40" as="geometry" />
        </mxCell>
        <mxCell id="l2PJl8eyPoyv5ziFQWxU-94" value="&lt;font style=&quot;font-size: 24px;&quot;&gt;Dequeue&lt;/font&gt;" style="text;html=1;align=center;verticalAlign=middle;resizable=0;points=[];autosize=1;strokeColor=none;fillColor=none;" parent="1" vertex="1">
          <mxGeometry x="190" y="880" width="120" height="40" as="geometry" />
        </mxCell>
        <mxCell id="l2PJl8eyPoyv5ziFQWxU-95" value="&lt;font style=&quot;font-size: 24px;&quot;&gt;Enqueue&lt;/font&gt;" style="text;html=1;align=center;verticalAlign=middle;resizable=0;points=[];autosize=1;strokeColor=none;fillColor=none;" parent="1" vertex="1">
          <mxGeometry x="1000" y="880" width="120" height="40" as="geometry" />
        </mxCell>
        <mxCell id="l2PJl8eyPoyv5ziFQWxU-96" value="&lt;font style=&quot;font-size: 24px;&quot;&gt;队头&lt;/font&gt;" style="text;html=1;align=center;verticalAlign=middle;resizable=0;points=[];autosize=1;strokeColor=none;fillColor=none;" parent="1" vertex="1">
          <mxGeometry x="295" y="1070" width="70" height="40" as="geometry" />
        </mxCell>
        <mxCell id="l2PJl8eyPoyv5ziFQWxU-97" value="&lt;span style=&quot;font-size: 24px;&quot;&gt;队尾&lt;/span&gt;" style="text;html=1;align=center;verticalAlign=middle;resizable=0;points=[];autosize=1;strokeColor=none;fillColor=none;" parent="1" vertex="1">
          <mxGeometry x="630" y="1080" width="70" height="40" as="geometry" />
        </mxCell>
        <mxCell id="l2PJl8eyPoyv5ziFQWxU-98" value="" style="rounded=0;whiteSpace=wrap;html=1;" parent="1" vertex="1">
          <mxGeometry x="630" y="920" width="40" height="140" as="geometry" />
        </mxCell>
        <mxCell id="W7hrU0J_Vzg8qqgI8a6c-1" value="&lt;span style=&quot;font-size: 72px;&quot;&gt;常见排序算法&lt;/span&gt;" style="rounded=1;whiteSpace=wrap;html=1;" parent="1" vertex="1">
          <mxGeometry x="690" y="1870" width="310" height="220" as="geometry" />
        </mxCell>
        <mxCell id="W7hrU0J_Vzg8qqgI8a6c-3" value="&lt;span style=&quot;font-size: 72px;&quot;&gt;插入排序&lt;/span&gt;" style="rounded=1;whiteSpace=wrap;html=1;" parent="1" vertex="1">
          <mxGeometry x="1190" y="1410" width="310" height="220" as="geometry" />
        </mxCell>
        <mxCell id="W7hrU0J_Vzg8qqgI8a6c-4" value="&lt;span style=&quot;font-size: 72px;&quot;&gt;选择排序&lt;/span&gt;" style="rounded=1;whiteSpace=wrap;html=1;" parent="1" vertex="1">
          <mxGeometry x="1190" y="1740" width="310" height="220" as="geometry" />
        </mxCell>
        <mxCell id="W7hrU0J_Vzg8qqgI8a6c-5" value="&lt;span style=&quot;font-size: 72px;&quot;&gt;交换排序&lt;/span&gt;&lt;span style=&quot;color: rgba(0, 0, 0, 0); font-family: monospace; font-size: 0px; text-align: start; text-wrap: nowrap;&quot;&gt;%3CmxGraphModel%3E%3Croot%3E%3CmxCell%20id%3D%220%22%2F%3E%3CmxCell%20id%3D%221%22%20parent%3D%220%22%2F%3E%3CmxCell%20id%3D%222%22%20value%3D%22%26lt%3Bspan%20style%3D%26quot%3Bfont-size%3A%2072px%3B%26quot%3B%26gt%3B%E5%B8%B8%E8%A7%81%E6%8E%92%E5%BA%8F%E7%AE%97%E6%B3%95%26lt%3B%2Fspan%26gt%3B%22%20style%3D%22rounded%3D1%3BwhiteSpace%3Dwrap%3Bhtml%3D1%3B%22%20vertex%3D%221%22%20parent%3D%221%22%3E%3CmxGeometry%20x%3D%22690%22%20y%3D%221730%22%20width%3D%22310%22%20height%3D%22220%22%20as%3D%22geometry%22%2F%3E%3C%2FmxCell%3E%3C%2Froot%3E%3C%2FmxGraphModel%3E&lt;/span&gt;" style="rounded=1;whiteSpace=wrap;html=1;" parent="1" vertex="1">
          <mxGeometry x="1190" y="2040" width="310" height="220" as="geometry" />
        </mxCell>
        <mxCell id="W7hrU0J_Vzg8qqgI8a6c-6" value="&lt;span style=&quot;font-size: 72px;&quot;&gt;归并排序&lt;/span&gt;" style="rounded=1;whiteSpace=wrap;html=1;" parent="1" vertex="1">
          <mxGeometry x="1190" y="2370" width="310" height="220" as="geometry" />
        </mxCell>
        <mxCell id="W7hrU0J_Vzg8qqgI8a6c-8" value="&lt;span style=&quot;font-size: 72px;&quot;&gt;直接插入排序&lt;/span&gt;" style="rounded=1;whiteSpace=wrap;html=1;" parent="1" vertex="1">
          <mxGeometry x="1640" y="1410" width="521" height="120" as="geometry" />
        </mxCell>
        <mxCell id="W7hrU0J_Vzg8qqgI8a6c-9" value="&lt;span style=&quot;font-size: 72px;&quot;&gt;希尔排序&lt;/span&gt;" style="rounded=1;whiteSpace=wrap;html=1;" parent="1" vertex="1">
          <mxGeometry x="1640" y="1530" width="521" height="120" as="geometry" />
        </mxCell>
        <mxCell id="W7hrU0J_Vzg8qqgI8a6c-10" value="&lt;span style=&quot;font-size: 72px;&quot;&gt;选择排序&lt;/span&gt;" style="rounded=1;whiteSpace=wrap;html=1;" parent="1" vertex="1">
          <mxGeometry x="1640" y="1740" width="521" height="120" as="geometry" />
        </mxCell>
        <mxCell id="W7hrU0J_Vzg8qqgI8a6c-11" value="&lt;span style=&quot;font-size: 72px;&quot;&gt;冒泡排序&lt;/span&gt;" style="rounded=1;whiteSpace=wrap;html=1;" parent="1" vertex="1">
          <mxGeometry x="1640" y="2040" width="521" height="120" as="geometry" />
        </mxCell>
        <mxCell id="W7hrU0J_Vzg8qqgI8a6c-12" value="&lt;span style=&quot;font-size: 72px;&quot;&gt;快速排序&lt;/span&gt;" style="rounded=1;whiteSpace=wrap;html=1;" parent="1" vertex="1">
          <mxGeometry x="1640" y="2160" width="521" height="120" as="geometry" />
        </mxCell>
        <mxCell id="W7hrU0J_Vzg8qqgI8a6c-13" value="&lt;span style=&quot;font-size: 72px;&quot;&gt;归并排序&lt;/span&gt;" style="rounded=1;whiteSpace=wrap;html=1;" parent="1" vertex="1">
          <mxGeometry x="1640" y="2440" width="521" height="120" as="geometry" />
        </mxCell>
        <mxCell id="W7hrU0J_Vzg8qqgI8a6c-14" value="&lt;span style=&quot;font-size: 72px;&quot;&gt;堆排序&lt;/span&gt;" style="rounded=1;whiteSpace=wrap;html=1;" parent="1" vertex="1">
          <mxGeometry x="1640" y="1860" width="521" height="120" as="geometry" />
        </mxCell>
        <mxCell id="W7hrU0J_Vzg8qqgI8a6c-15" value="" style="shape=flexArrow;endArrow=classic;html=1;rounded=0;exitX=1;exitY=0.5;exitDx=0;exitDy=0;width=85;endSize=12.7;endWidth=187.5;" parent="1" source="W7hrU0J_Vzg8qqgI8a6c-1" edge="1">
          <mxGeometry width="50" height="50" relative="1" as="geometry">
            <mxPoint x="1100" y="2290" as="sourcePoint" />
            <mxPoint x="1080" y="1980" as="targetPoint" />
          </mxGeometry>
        </mxCell>
        <mxCell id="W7hrU0J_Vzg8qqgI8a6c-16" value="" style="shape=curlyBracket;whiteSpace=wrap;html=1;rounded=1;labelPosition=left;verticalLabelPosition=middle;align=right;verticalAlign=middle;size=0.5;" parent="1" vertex="1">
          <mxGeometry x="1080" y="1510" width="100" height="990" as="geometry" />
        </mxCell>
        <mxCell id="W7hrU0J_Vzg8qqgI8a6c-18" value="" style="shape=curlyBracket;whiteSpace=wrap;html=1;rounded=1;labelPosition=left;verticalLabelPosition=middle;align=right;verticalAlign=middle;size=0.5;" parent="1" vertex="1">
          <mxGeometry x="1495" y="1410" width="110" height="230" as="geometry" />
        </mxCell>
        <mxCell id="W7hrU0J_Vzg8qqgI8a6c-19" value="" style="shape=curlyBracket;whiteSpace=wrap;html=1;rounded=1;labelPosition=left;verticalLabelPosition=middle;align=right;verticalAlign=middle;size=0.5;" parent="1" vertex="1">
          <mxGeometry x="1495" y="1740" width="110" height="230" as="geometry" />
        </mxCell>
        <mxCell id="W7hrU0J_Vzg8qqgI8a6c-20" value="" style="shape=curlyBracket;whiteSpace=wrap;html=1;rounded=1;labelPosition=left;verticalLabelPosition=middle;align=right;verticalAlign=middle;size=0.5;" parent="1" vertex="1">
          <mxGeometry x="1495" y="2040" width="110" height="230" as="geometry" />
        </mxCell>
        <mxCell id="W7hrU0J_Vzg8qqgI8a6c-21" value="" style="shape=curlyBracket;whiteSpace=wrap;html=1;rounded=1;labelPosition=left;verticalLabelPosition=middle;align=right;verticalAlign=middle;size=0.5;" parent="1" vertex="1">
          <mxGeometry x="1495" y="2365" width="110" height="230" as="geometry" />
        </mxCell>
        <mxCell id="1Zp34OtebiAQq8noYUA0-1" value="" style="endArrow=classic;html=1;rounded=0;" edge="1" parent="1">
          <mxGeometry width="50" height="50" relative="1" as="geometry">
            <mxPoint x="440" y="3400" as="sourcePoint" />
            <mxPoint x="1200" y="3400" as="targetPoint" />
          </mxGeometry>
        </mxCell>
        <mxCell id="1Zp34OtebiAQq8noYUA0-2" value="" style="endArrow=classic;html=1;rounded=0;" edge="1" parent="1">
          <mxGeometry width="50" height="50" relative="1" as="geometry">
            <mxPoint x="440" y="3400" as="sourcePoint" />
            <mxPoint x="440" y="2930" as="targetPoint" />
          </mxGeometry>
        </mxCell>
        <mxCell id="1Zp34OtebiAQq8noYUA0-3" value="" style="endArrow=none;html=1;rounded=0;" edge="1" parent="1">
          <mxGeometry width="50" height="50" relative="1" as="geometry">
            <mxPoint x="440" y="3200" as="sourcePoint" />
            <mxPoint x="800" y="3000" as="targetPoint" />
          </mxGeometry>
        </mxCell>
        <mxCell id="1Zp34OtebiAQq8noYUA0-4" value="" style="endArrow=none;html=1;rounded=0;" edge="1" parent="1">
          <mxGeometry width="50" height="50" relative="1" as="geometry">
            <mxPoint x="800" y="3000" as="sourcePoint" />
            <mxPoint x="1160" y="3200" as="targetPoint" />
          </mxGeometry>
        </mxCell>
        <mxCell id="1Zp34OtebiAQq8noYUA0-5" value="&lt;font style=&quot;font-size: 24px;&quot;&gt;N&lt;/font&gt;" style="text;html=1;align=center;verticalAlign=middle;resizable=0;points=[];autosize=1;strokeColor=none;fillColor=none;" vertex="1" parent="1">
          <mxGeometry x="380" y="3180" width="40" height="40" as="geometry" />
        </mxCell>
        <mxCell id="1Zp34OtebiAQq8noYUA0-6" value="&lt;font style=&quot;font-size: 24px;&quot;&gt;每一趟的消耗&lt;/font&gt;" style="text;html=1;align=center;verticalAlign=middle;resizable=0;points=[];autosize=1;strokeColor=none;fillColor=none;" vertex="1" parent="1">
          <mxGeometry x="340" y="2883" width="170" height="40" as="geometry" />
        </mxCell>
        <mxCell id="1Zp34OtebiAQq8noYUA0-7" value="&lt;font style=&quot;font-size: 24px;&quot;&gt;gap&lt;/font&gt;" style="text;html=1;align=center;verticalAlign=middle;resizable=0;points=[];autosize=1;strokeColor=none;fillColor=none;" vertex="1" parent="1">
          <mxGeometry x="1170" y="3400" width="60" height="40" as="geometry" />
        </mxCell>
        <mxCell id="1Zp34OtebiAQq8noYUA0-9" value="&lt;font style=&quot;font-size: 24px;&quot;&gt;n/3&lt;/font&gt;" style="text;html=1;align=center;verticalAlign=middle;resizable=0;points=[];autosize=1;strokeColor=none;fillColor=none;" vertex="1" parent="1">
          <mxGeometry x="440" y="3420" width="60" height="40" as="geometry" />
        </mxCell>
        <mxCell id="1Zp34OtebiAQq8noYUA0-10" value="" style="endArrow=none;dashed=1;html=1;dashPattern=1 3;strokeWidth=2;rounded=0;" edge="1" parent="1">
          <mxGeometry width="50" height="50" relative="1" as="geometry">
            <mxPoint x="440" y="3200" as="sourcePoint" />
            <mxPoint x="1410" y="3200" as="targetPoint" />
          </mxGeometry>
        </mxCell>
      </root>
    </mxGraphModel>
  </diagram>
</mxfile>
